/vscmnt/brussel_pixiu_data/_data_brussel/112/vsc11236/PredSimResults/SUBJ07opt3D/expIG/worker_10.mot
version=1
nRows=5
nColumns=50
inDegrees=yes
endheader
                time	         pelvis_tilt	         pelvis_list	     pelvis_rotation	           pelvis_tx	           pelvis_ty	           pelvis_tz	       hip_flexion_r	     hip_adduction_r	      hip_rotation_r	        knee_angle_r	       ankle_angle_r	         mtp_angle_r	       hip_flexion_l	     hip_adduction_l	      hip_rotation_l	        knee_angle_l	       ankle_angle_l	         mtp_angle_l	    lumbar_extension	      lumbar_bending	     lumbar_rotation	 ercspn_r/activation	 intobl_r/activation	 extobl_r/activation	    abd_r/activation	    add_r/activation	hamstrings_r/activation	bifemsh_r/activation	glut_max_r/activation	iliopsoas_r/activation	rect_fem_r/activation	  vasti_r/activation	gastroc_r/activation	 soleus_r/activation	tib_ant_r/activation	 ercspn_l/activation	 intobl_l/activation	 extobl_l/activation	    abd_l/activation	    add_l/activation	hamstrings_l/activation	bifemsh_l/activation	glut_max_l/activation	iliopsoas_l/activation	rect_fem_l/activation	  vasti_l/activation	gastroc_l/activation	 soleus_l/activation	tib_ant_l/activation	
          0.00000000	         -5.70578590	         -1.29542550	          8.43150258	          0.00000000	          0.84373459	         -0.00986360	         32.62956031	         -1.73075890	         -4.44956344	         -6.17193198	          4.42176083	          0.30376211	        -12.53045316	         -1.25147600	          3.08438731	        -13.63340968	          5.76885241	         33.51534516	        -13.68572319	          0.29547567	         -2.59339279	          0.13623351	          0.15088561	          0.00999999	          0.02433304	          0.12425850	          0.13697003	          0.21739498	          0.03723012	          0.06106116	          0.00999999	          0.00999999	          0.01571958	          0.00999999	          0.49000192	          0.09696331	          0.00999999	          0.00999999	          0.01934307	          0.04042203	          0.01374593	          0.01162733	          0.01655026	          0.01530637	          0.13896025	          0.02873180	          0.26251337	          0.24615754	          0.01176483	
          0.00976405	         -5.66711044	         -1.23184345	          8.49106030	          0.01760783	          0.84194903	         -0.00943652	         32.59286539	         -1.54685350	         -4.34829560	         -7.98334904	          3.98002514	          0.30802260	        -13.86733878	         -1.40030765	          2.83117575	        -13.21734107	          4.20702252	         34.67445185	        -13.45648719	          0.51321322	         -2.80438982	          0.11716651	          0.12976792	          0.00999999	          0.02092743	          0.17421910	          0.11779995	          0.18696876	          0.11326299	          0.05251515	          0.00999999	          0.00999999	          0.01351950	          0.01351950	          0.49005593	          0.08746573	          0.00999999	          0.00999999	          0.01663585	          0.09255719	          0.02298262	          0.00999999	          0.01423392	          0.24200639	          0.11951162	          0.02471054	          0.22577246	          0.22018752	          0.01011824	
          0.01952811	         -5.62536202	         -1.15997605	          8.50651112	          0.03523427	          0.84017307	         -0.00901717	         32.51109121	         -1.42698098	         -4.11649208	        -10.04435493	          3.53363515	          0.27742502	        -14.97467188	         -1.51001008	          2.54539011	        -13.25131477	          2.72340959	         35.60602756	        -13.24686038	          0.74284521	         -2.99743819	          0.11651976	          0.11160584	          0.00999999	          0.08653250	          0.18110579	          0.10131287	          0.16080094	          0.16862361	          0.04516522	          0.00999999	          0.00999999	          0.01162733	          0.01162733	          0.59445565	          0.14773992	          0.00999999	          0.00999999	          0.01430753	          0.08665423	          0.01976601	          0.07400701	          0.01224176	          0.22396149	          0.10278498	          0.02125210	          0.19417375	          0.19538322	          0.00999999	
          0.02929216	         -5.58420480	         -1.07628751	          8.47414655	          0.05270995	          0.83859224	         -0.00853578	         32.38174735	         -1.32050359	         -3.89997216	        -11.97717045	          3.00378296	          0.25884749	        -15.75485720	         -1.57894602	          2.23086679	        -13.87878530	          1.33616083	         36.23116770	        -13.07439326	          0.96604698	         -3.16898366	          0.14083226	          0.09598568	          0.00999999	          0.15424966	          0.21172385	          0.08713330	          0.13829553	          0.21232494	          0.03884398	          0.00999999	          0.00999999	          0.00999999	          0.00999999	          0.67167748	          0.16926007	          0.00999999	          0.00999999	          0.01230507	          0.09312187	          0.01869527	          0.06364912	          0.01052843	          0.31356243	          0.08839938	          0.01827769	          0.16699754	          0.16803773	          0.00999999	
          0.03905621	         -5.54375697	         -0.98562057	          8.39870802	          0.06986873	          0.83738540	         -0.00799133	         32.28124831	         -1.21190436	         -3.70721111	        -13.93682376	          2.59093973	          0.22720468	        -16.12640607	         -1.61267031	          1.90347548	        -15.21410587	          0.04953986	         36.46509540	        -12.95513764	          1.18743767	         -3.31610956	          0.16473382	          0.08255169	          0.00999999	          0.21266256	          0.23965133	          0.07493828	          0.11893993	          0.26553670	          0.03340744	          0.00999999	          0.00999999	          0.00999999	          0.00999999	          0.66962472	          0.22075078	          0.00999999	          0.00999999	          0.01058287	          0.09906519	          0.02023510	          0.05474090	          0.00999999	          0.36013584	          0.07602716	          0.01571958	          0.14362486	          0.14451947	          0.00999999	
